<?xml version="1.0" encoding="UTF-8"?>
<svg id="Layer_2" data-name="Layer 2" xmlns="http://www.w3.org/2000/svg" viewBox="0 0 426.19 116.91">
  <defs>
    <style>
      .cls-1 {
        fill: #fff;
      }
    </style>
  </defs>
  <path class="cls-1" d="M110.55,30.5h-18.9v48.53h-6.22V30.5h-18.9v-5.91h44.02v5.91h0Z"/>
  <path class="cls-1" d="M130.46,41.47c1.32,0,2.53.1,3.64.29,1.1.19,2.14.51,3.13.95l-1.4,5.72c-.91-.49-1.92-.86-3.05-1.11s-2.24-.37-3.33-.37c-1.45,0-2.78.27-3.99.82s-2.24,1.32-3.11,2.31c-.87,1-1.55,2.2-2.04,3.62-.49,1.41-.74,2.99-.74,4.72v20.61h-5.79v-36.82h5.76v5.17c1.27-1.89,2.84-3.35,4.71-4.38,1.87-1.02,3.94-1.54,6.22-1.54h-.01Z"/>
  <path class="cls-1" d="M179.34,79.03h-5.79v-5.48c-1.48,1.89-3.32,3.4-5.54,4.53-2.22,1.13-4.85,1.69-7.91,1.69-2.59,0-5.01-.48-7.25-1.44s-4.19-2.29-5.83-3.99c-1.65-1.7-2.94-3.72-3.89-6.07s-1.42-4.91-1.42-7.68.47-5.29,1.42-7.64,2.24-4.37,3.89-6.07,3.59-3.03,5.83-3.99c2.24-.96,4.66-1.44,7.25-1.44,3.06,0,5.7.57,7.91,1.71s4.06,2.64,5.54,4.51v-5.48h5.79v36.84ZM160.79,46.91c-1.97,0-3.77.36-5.39,1.07s-3.01,1.69-4.16,2.94c-1.15,1.24-2.05,2.7-2.68,4.35-.63,1.66-.95,3.44-.95,5.33s.32,3.71.95,5.37c.64,1.66,1.54,3.11,2.7,4.35,1.17,1.24,2.56,2.22,4.18,2.94,1.62.71,3.4,1.07,5.35,1.07s3.68-.35,5.29-1.05c1.61-.7,2.99-1.66,4.14-2.88,1.15-1.22,2.05-2.67,2.7-4.35.65-1.69.97-3.5.97-5.44s-.33-3.75-.97-5.42c-.65-1.67-1.55-3.12-2.7-4.34s-2.53-2.18-4.14-2.88-3.37-1.05-5.29-1.05h0Z"/>
  <path class="cls-1" d="M195.87,25.02c.57,0,1.11.1,1.61.31.51.21.94.5,1.3.88s.65.82.88,1.32c.22.51.33,1.04.33,1.61s-.11,1.14-.33,1.63-.51.92-.88,1.28c-.36.36-.8.65-1.3.86s-1.04.31-1.61.31c-1.17,0-2.14-.39-2.92-1.17-.78-.78-1.17-1.75-1.17-2.92s.39-2.14,1.17-2.94c.78-.79,1.75-1.19,2.92-1.19v.02ZM198.78,79.03h-5.83v-36.82h5.83v36.82Z"/>
  <path class="cls-1" d="M230.55,41.47c2.28,0,4.36.35,6.24,1.05s3.49,1.69,4.84,2.97,2.4,2.83,3.15,4.65c.75,1.81,1.13,3.84,1.13,6.07v22.83h-5.79v-20.92c0-3.53-.92-6.26-2.76-8.21s-4.46-2.92-7.85-2.92c-1.56,0-3.01.26-4.38.78-1.36.52-2.55,1.26-3.58,2.24-1.02.97-1.83,2.16-2.43,3.56s-.89,2.97-.89,4.71v20.77h-5.83v-36.82h5.76v5.25c.75-1.09,1.61-2.02,2.57-2.78.96-.76,1.98-1.39,3.07-1.87s2.2-.82,3.34-1.03c1.14-.21,2.28-.31,3.42-.31v-.02Z"/>
  <path class="cls-1" d="M262.01,25.02c.57,0,1.11.1,1.61.31.51.21.94.5,1.3.88s.65.82.88,1.32c.22.51.33,1.04.33,1.61s-.11,1.14-.33,1.63-.51.92-.88,1.28c-.36.36-.8.65-1.3.86s-1.04.31-1.61.31c-1.17,0-2.14-.39-2.92-1.17-.78-.78-1.17-1.75-1.17-2.92s.39-2.14,1.17-2.94c.78-.79,1.75-1.19,2.92-1.19v.02ZM264.93,79.03h-5.83v-36.82h5.83v36.82Z"/>
  <path class="cls-1" d="M296.7,41.47c2.28,0,4.36.35,6.24,1.05s3.49,1.69,4.84,2.97,2.4,2.83,3.15,4.65c.75,1.81,1.13,3.84,1.13,6.07v22.83h-5.79v-20.92c0-3.53-.92-6.26-2.76-8.21s-4.46-2.92-7.85-2.92c-1.56,0-3.01.26-4.38.78-1.36.52-2.55,1.26-3.58,2.24-1.02.97-1.83,2.16-2.43,3.56s-.89,2.97-.89,4.71v20.77h-5.83v-36.82h5.76v5.25c.75-1.09,1.61-2.02,2.57-2.78.96-.76,1.98-1.39,3.07-1.87s2.2-.82,3.34-1.03c1.14-.21,2.28-.31,3.42-.31v-.02Z"/>
  <path class="cls-1" d="M340.68,41.47c2.98,0,5.57.56,7.76,1.69,2.19,1.13,3.99,2.65,5.39,4.57v-5.52h5.83v34.3c0,3.01-.48,5.67-1.44,7.99s-2.3,4.27-4.02,5.85-3.78,2.78-6.16,3.6-5,1.22-7.85,1.22c-1.48,0-2.94-.11-4.38-.33s-2.83-.54-4.18-.97-2.61-.95-3.79-1.56-2.24-1.3-3.17-2.08l2.57-4.67c1.76,1.32,3.73,2.37,5.91,3.15s4.52,1.17,7.04,1.17c2,0,3.83-.28,5.5-.84s3.11-1.39,4.32-2.51c1.21-1.12,2.14-2.49,2.82-4.12.67-1.63,1.01-3.53,1.01-5.68v-3.77c-1.4,1.94-3.2,3.47-5.39,4.59-2.19,1.11-4.78,1.67-7.76,1.67-2.59,0-5-.46-7.21-1.38-2.22-.92-4.14-2.22-5.77-3.89-1.63-1.67-2.92-3.66-3.85-5.97s-1.4-4.86-1.4-7.66.47-5.32,1.4-7.64,2.22-4.31,3.85-5.97,3.56-2.95,5.77-3.87c2.22-.92,4.62-1.38,7.21-1.38h-.01ZM341.34,46.91c-1.94,0-3.72.35-5.33,1.05s-2.97,1.66-4.1,2.88-2,2.64-2.62,4.26-.93,3.36-.93,5.23.31,3.62.93,5.25c.62,1.63,1.5,3.06,2.62,4.28,1.13,1.22,2.5,2.18,4.1,2.88,1.61.7,3.38,1.05,5.33,1.05s3.64-.34,5.23-1.03,2.96-1.63,4.1-2.84,2.04-2.62,2.68-4.26c.65-1.63.97-3.41.97-5.33s-.32-3.66-.97-5.29-1.54-3.05-2.68-4.26-2.51-2.15-4.1-2.84-3.34-1.03-5.23-1.03Z"/>
</svg>