<?xml version="1.0" encoding="UTF-8"?>
<svg id="Layer_2" xmlns="http://www.w3.org/2000/svg" viewBox="0 0 426.19 116.91">
  <defs>
    <style>
      .cls-1 {
        fill: #144a7e;
      }

      .cls-2 {
        fill: #424143;
        isolation: isolate;
        opacity: .5;
      }

      .cls-3 {
        fill: #fff;
      }

      .cls-4 {
        fill: #0b4d2a;
      }

      .cls-5 {
        fill: #ec6d31;
      }

      .cls-6 {
        fill: #8cc242;
      }

      .cls-7 {
        fill: #994324;
      }

      .cls-8 {
        fill: #05a8d7;
      }

      .cls-9 {
        fill: #a5702b;
      }

      .cls-10 {
        fill: #595a5c;
      }

      .cls-11 {
        fill: #fbb042;
      }
    </style>
  </defs>
  <g id="Layer_1-2" data-name="Layer_1">
    <path id="Path" class="cls-11" d="M100.82,89.09c-2.35-1.45-4.63-3.69-6.89-5.62-.7-.6-2-1.79-3.51-3.25-.76,1.24-1.59,2.43-2.47,3.58-2.24,2.94-4.86,5.54-7.78,7.75l1.42,1.53,3.22,3.46c1.81,1.94,3.57,4.17,5.25,5.51.4.33.83.63,1.26.91h.04c.41.26.85.5,1.29.7h0c4.37-3.69,8.18-8.02,11.32-12.85l.08-.13c-1.12-.44-2.2-.97-3.24-1.6Z"/>
    <path id="Path-2" data-name="Path" class="cls-11" d="M23.37,28.86c1.6.21,3.17.64,4.67,1.26,4.14-4.45,9.19-7.89,14.79-10.05-5.72-4.91-12.5-7.64-19.24-7.61-.67,0-1.31,0-1.92.04-7,5.68-12.61,12.97-16.37,21.29h0c-.24.53-.47,1.06-.69,1.6-.08.2-.16.39-.23.6-.14.35-.28.7-.42,1.05l-.12.32,2.69-2.45c5.53-5.09,11.87-6.7,16.85-6.04Z"/>
    <path id="Path-3" data-name="Path" class="cls-5" d="M94.37,83.85c2.1,1.84,4.25,3.88,6.45,5.23,1.03.64,2.11,1.19,3.24,1.64,5.08-7.87,8.21-16.89,9.14-26.29h0l-18.82,19.41Z"/>
    <path id="Path-4" data-name="Path" class="cls-5" d="M42.83,20.07h0c11.09-4.26,23.44-3.21,33.7,2.86,10.26,6.07,17.37,16.53,19.38,28.54h17.16C109.88,21.65,86.34,0,56.72,0c-12.71,0-25.06,4.41-35.04,12.52.61,0,1.25-.04,1.92-.04,6.74-.06,13.52,2.67,19.23,7.58Z"/>
    <path id="Path-5" data-name="Path" class="cls-6" d="M28.04,30.12c-1.5-.63-3.06-1.05-4.67-1.26-4.98-.66-11.32.95-16.85,6.02l-2.69,2.45C1.3,44.05,0,51.21,0,58.43v.6l27.72-28.56.31-.35Z"/>
    <path id="Path-6" data-name="Path" class="cls-8" d="M91.33,102.98c-.44-.28-.86-.58-1.26-.91-1.68-1.37-3.44-3.58-5.25-5.51l-1.36-1.46-20.84,21.49c1.06-.11,2.12-.24,3.17-.42,9.87-1.62,19.14-5.91,26.87-12.43-.45-.2-.88-.44-1.29-.7l-.04-.05Z"/>
    <path id="Path-7" data-name="Path" class="cls-11" d="M94.37,83.85l-10.92,11.24,1.36,1.46c1.81,1.94,3.57,4.17,5.25,5.51.4.33.83.63,1.26.91h.04c.41.26.85.5,1.29.7h0c4.37-3.69,8.18-8.02,11.32-12.85l.08-.13c-1.12-.45-2.2-1-3.24-1.64-2.19-1.32-4.35-3.37-6.45-5.2Z"/>
    <path id="Path-8" data-name="Path" class="cls-7" d="M112.95,64.15h-16.83c-.16,1.19-.37,2.35-.63,3.49-.3,1.34-.66,2.64-1.08,3.92v.06c-.88,2.68-2.04,5.26-3.44,7.69l-.08.12c-.15.26-.31.52-.46.78h0c1.51,1.44,2.81,2.65,3.51,3.25l.44.39,18.82-19.38v-.08l-.26-.24Z"/>
    <path id="Path-9" data-name="Path" class="cls-4" d="M22.36,79.04c-2.39-4.22-4.02-8.86-4.82-13.68v-.07c-.06-.4-.13-.8-.18-1.19,0-.05,0-.1,0-.15-.11-.85-.19-1.7-.25-2.56v-.32c0-.32-.03-.64-.05-.97v-1.63c-.01-8.31,2.44-16.42,7.03-23.25h0c.29-.43.58-.85.89-1.26s.49-.66.75-.98l.16-.21c.62-.79,1.26-1.56,1.93-2.28L0,59.02v.52c.19,11.13,3.47,21.96,9.45,31.23l7.59-6.91,5.31-4.83Z"/>
    <path id="Path-10" data-name="Path" class="cls-1" d="M81.61,93.09l-1.42-1.53c-14.65,11.01-34.68,10.41-48.68-1.46l-12.85,11.68c10.42,9.75,23.99,15.14,38.06,15.13.64,0,1.27,0,1.9-.04.28,0,.58,0,.84-.04l.76-.05c.79-.05,1.57-.11,2.35-.2h0l20.84-21.49-1.8-2Z"/>
    <path id="Path-11" data-name="Path" class="cls-9" d="M22.36,79.03h0l-5.3,4.83-7.6,6.92v.04c.29.45.58.89.89,1.34l.19.27c.29.42.58.83.88,1.24,1.81,2.47,3.82,4.79,5.98,6.94h0c.35.35.71.7,1.08,1.04l.16.14,12.83-11.68c-3.65-3.11-6.73-6.85-9.1-11.07h0Z"/>
    <path id="Path-12" data-name="Path" class="cls-9" d="M83.45,95.09l10.92-11.24-.44-.39c-.7-.6-2-1.79-3.51-3.25h0c-.76,1.24-1.59,2.43-2.47,3.58-2.24,2.94-4.86,5.54-7.78,7.75l1.42,1.53,1.86,2.02Z"/>
    <ellipse id="Oval" class="cls-10" cx="56.95" cy="58.79" rx="38.49" ry="39.65"/>
    <path id="Path-13" data-name="Path" class="cls-2" d="M89.94,49.13c-1.82-3.5-4.4-6.52-7.55-8.81-.85-2.6-2.07-5.05-3.61-7.28-7.05-5.59-15.99-8.01-24.79-6.72-8.81,1.29-16.73,6.19-21.99,13.58,12.35-9.34,29.32-8.7,40.98,1.54,11.66,10.24,14.95,27.39,7.96,41.43,2.24-1.4,4.25-3.15,5.95-5.2,5.07-8.58,6.19-19.03,3.06-28.55h0Z"/>
    <path id="Shape" class="cls-3" d="M113.09,51.47h-17.16c-3.54-21.08-22.23-35.8-42.91-33.8-20.67,2-36.37,20.05-36.04,41.44.33,21.39,16.58,38.91,37.31,40.23,20.73,1.32,38.95-14.01,41.84-35.19h17.1c.18-1.88.27-3.77.27-5.7,0-2.33-.14-4.66-.41-6.98ZM56.72,89.62c-16.71-.01-30.24-13.97-30.24-31.18,0-17.21,13.55-31.16,30.25-31.16,16.71,0,30.25,13.94,30.27,31.15,0,8.27-3.18,16.21-8.86,22.06-5.68,5.85-13.39,9.14-21.42,9.13h0Z"/>
    <g>
      <path class="cls-3" d="M177.09,30.5h-18.9v48.53h-6.22V30.5h-18.9v-5.91h44.02v5.91Z"/>
      <path class="cls-3" d="M197,41.47c1.32,0,2.53.1,3.64.29,1.1.19,2.14.51,3.13.95l-1.4,5.72c-.91-.49-1.92-.86-3.05-1.11-1.13-.25-2.24-.37-3.33-.37-1.45,0-2.78.27-3.99.82s-2.24,1.32-3.11,2.31c-.87,1-1.55,2.2-2.04,3.62-.49,1.41-.74,2.99-.74,4.72v20.61h-5.79v-36.82h5.76v5.17c1.27-1.89,2.84-3.35,4.71-4.38,1.87-1.02,3.94-1.54,6.22-1.54Z"/>
      <path class="cls-3" d="M245.88,79.03h-5.79v-5.48c-1.48,1.89-3.32,3.4-5.54,4.53-2.22,1.13-4.85,1.69-7.91,1.69-2.59,0-5.01-.48-7.25-1.44-2.24-.96-4.19-2.29-5.83-3.99-1.65-1.7-2.94-3.72-3.89-6.07-.95-2.35-1.42-4.91-1.42-7.68s.47-5.29,1.42-7.64c.95-2.35,2.24-4.37,3.89-6.07,1.65-1.7,3.59-3.03,5.83-3.99,2.24-.96,4.66-1.44,7.25-1.44,3.06,0,5.7.57,7.91,1.71s4.06,2.64,5.54,4.51v-5.48h5.79v36.82ZM227.33,46.91c-1.97,0-3.77.36-5.39,1.07-1.62.71-3.01,1.69-4.16,2.94-1.15,1.24-2.05,2.7-2.68,4.35-.63,1.66-.95,3.44-.95,5.33s.32,3.71.95,5.37c.64,1.66,1.54,3.11,2.7,4.35,1.17,1.24,2.56,2.22,4.18,2.94,1.62.71,3.4,1.07,5.35,1.07s3.68-.35,5.29-1.05c1.61-.7,2.99-1.66,4.14-2.88,1.15-1.22,2.05-2.67,2.7-4.35.65-1.69.97-3.5.97-5.44s-.33-3.75-.97-5.42c-.65-1.67-1.55-3.12-2.7-4.34-1.15-1.22-2.53-2.18-4.14-2.88-1.61-.7-3.37-1.05-5.29-1.05Z"/>
      <path class="cls-3" d="M262.41,25.02c.57,0,1.11.1,1.61.31.51.21.94.5,1.3.88.36.38.65.82.88,1.32.22.51.33,1.04.33,1.61s-.11,1.14-.33,1.63c-.22.49-.51.92-.88,1.28-.36.36-.8.65-1.3.86-.5.21-1.04.31-1.61.31-1.17,0-2.14-.39-2.92-1.17-.78-.78-1.17-1.75-1.17-2.92s.39-2.14,1.17-2.94c.78-.79,1.75-1.19,2.92-1.19ZM265.32,79.03h-5.83v-36.82h5.83v36.82Z"/>
      <path class="cls-3" d="M297.09,41.47c2.28,0,4.36.35,6.24,1.05,1.88.7,3.49,1.69,4.84,2.97s2.4,2.83,3.15,4.65c.75,1.81,1.13,3.84,1.13,6.07v22.83h-5.79v-20.92c0-3.53-.92-6.26-2.76-8.21s-4.46-2.92-7.85-2.92c-1.56,0-3.01.26-4.38.78-1.36.52-2.55,1.26-3.58,2.24-1.02.97-1.83,2.16-2.43,3.56-.6,1.4-.89,2.97-.89,4.71v20.77h-5.83v-36.82h5.76v5.25c.75-1.09,1.61-2.02,2.57-2.78.96-.76,1.98-1.39,3.07-1.87,1.09-.48,2.2-.82,3.34-1.03,1.14-.21,2.28-.31,3.42-.31Z"/>
      <path class="cls-3" d="M328.55,25.02c.57,0,1.11.1,1.61.31.51.21.94.5,1.3.88.36.38.65.82.88,1.32.22.51.33,1.04.33,1.61s-.11,1.14-.33,1.63c-.22.49-.51.92-.88,1.28-.36.36-.8.65-1.3.86-.5.21-1.04.31-1.61.31-1.17,0-2.14-.39-2.92-1.17-.78-.78-1.17-1.75-1.17-2.92s.39-2.14,1.17-2.94c.78-.79,1.75-1.19,2.92-1.19ZM331.47,79.03h-5.83v-36.82h5.83v36.82Z"/>
      <path class="cls-3" d="M363.24,41.47c2.28,0,4.36.35,6.24,1.05,1.88.7,3.49,1.69,4.84,2.97s2.4,2.83,3.15,4.65c.75,1.81,1.13,3.84,1.13,6.07v22.83h-5.79v-20.92c0-3.53-.92-6.26-2.76-8.21s-4.46-2.92-7.85-2.92c-1.56,0-3.01.26-4.38.78-1.36.52-2.55,1.26-3.58,2.24-1.02.97-1.83,2.16-2.43,3.56-.6,1.4-.89,2.97-.89,4.71v20.77h-5.83v-36.82h5.76v5.25c.75-1.09,1.61-2.02,2.57-2.78.96-.76,1.98-1.39,3.07-1.87,1.09-.48,2.2-.82,3.34-1.03,1.14-.21,2.28-.31,3.42-.31Z"/>
      <path class="cls-3" d="M407.22,41.47c2.98,0,5.57.56,7.76,1.69,2.19,1.13,3.99,2.65,5.39,4.57v-5.52h5.83v34.3c0,3.01-.48,5.67-1.44,7.99-.96,2.32-2.3,4.27-4.02,5.85-1.72,1.58-3.78,2.78-6.16,3.6-2.38.82-5,1.22-7.85,1.22-1.48,0-2.94-.11-4.38-.33-1.44-.22-2.83-.54-4.18-.97-1.35-.43-2.61-.95-3.79-1.56s-2.24-1.3-3.17-2.08l2.57-4.67c1.76,1.32,3.73,2.37,5.91,3.15,2.18.78,4.52,1.17,7.04,1.17,2,0,3.83-.28,5.5-.84s3.11-1.39,4.32-2.51c1.21-1.12,2.14-2.49,2.82-4.12.67-1.63,1.01-3.53,1.01-5.68v-3.77c-1.4,1.94-3.2,3.47-5.39,4.59-2.19,1.11-4.78,1.67-7.76,1.67-2.59,0-5-.46-7.21-1.38-2.22-.92-4.14-2.22-5.77-3.89-1.63-1.67-2.92-3.66-3.85-5.97-.93-2.31-1.4-4.86-1.4-7.66s.47-5.32,1.4-7.64c.93-2.32,2.22-4.31,3.85-5.97,1.63-1.66,3.56-2.95,5.77-3.87,2.22-.92,4.62-1.38,7.21-1.38ZM407.88,46.91c-1.94,0-3.72.35-5.33,1.05-1.61.7-2.97,1.66-4.1,2.88-1.13,1.22-2,2.64-2.62,4.26-.62,1.62-.93,3.36-.93,5.23s.31,3.62.93,5.25c.62,1.63,1.5,3.06,2.62,4.28,1.13,1.22,2.5,2.18,4.1,2.88,1.61.7,3.38,1.05,5.33,1.05s3.64-.34,5.23-1.03c1.59-.69,2.96-1.63,4.1-2.84s2.04-2.62,2.68-4.26c.65-1.63.97-3.41.97-5.33s-.32-3.66-.97-5.29c-.65-1.63-1.54-3.05-2.68-4.26s-2.51-2.15-4.1-2.84c-1.59-.69-3.34-1.03-5.23-1.03Z"/>
    </g>
  </g>
</svg>