<?xml version="1.0" encoding="UTF-8"?>
<svg id="Layer_2" xmlns="http://www.w3.org/2000/svg" viewBox="0 0 578.62 142.01">
  <defs>
    <style>
      .cls-1 {
        fill: #fff;
      }
    </style>
  </defs>
  <g id="Layer_1-2" data-name="Layer_1">
    <g id="yardi-logo-gradient">
      <path class="cls-1" d="M0,142.01v-58.72L101.99,0v60.34L0,142.01ZM18.49,67.05L0,56.68V0l18.49,10.77v56.28ZM158.88,68.06L134.7,3.25h28.04l12.39,43.27L204.18,3.25h32.71l-51.2,65.01-8.33,39.21h-26.82l8.33-39.41ZM261.27,3.25h27.43l17.07,104.23h-27.22l-2.44-18.69h-36.77l-10.56,18.69h-28.65L261.27,3.25ZM249.69,68.67h23.97l-4.06-37.38h-.2l-19.71,37.38ZM333.81,3.25h51.2c10.77,0,18.69,1.63,23.97,5.08,6.3,4.27,9.55,11.58,9.55,21.74,0,17.07-7.92,26.82-23.77,29.05v.2c7.11,1.83,10.56,7.52,10.56,17.47,0,2.64,0,6.1-.2,10.36-.2,4.27-.2,7.31-.2,9.14,0,5.49.61,9.14,1.63,10.97h-27.22c-.61-2.64-.81-4.67-.81-5.89,0-1.63.2-4.47.41-8.53.2-3.86.41-7.11.41-9.75,0-9.35-4.47-14.02-13.41-14.02h-18.08l-8.53,38.4h-27.22L333.81,3.25ZM351.48,49.37h21.54c12.19,0,18.29-4.88,18.29-14.42,0-7.31-4.88-10.77-14.63-10.77h-19.91l-5.28,25.19ZM440.88,3.25h39.01c30.88,0,46.53,14.63,46.53,44.09,0,17.27-4.88,31.29-14.83,42.26-10.97,11.99-26.41,17.88-46.12,17.88h-46.73L440.88,3.25ZM451.03,84.11h17.88c10.56,0,18.49-4.06,23.97-12.19,4.27-6.3,6.3-13.82,6.3-22.35,0-15.44-6.91-23.16-20.52-23.16h-15.64l-11.99,57.7ZM551.4,3.25h27.22l-21.74,104.23h-27.43l21.94-104.23Z"/>
    </g>
  </g>
</svg>